<svg width="50" height="50" viewBox="0 0 50 50" fill="none" xmlns="http://www.w3.org/2000/svg">
<g id="ri:instagram-fill">
<path id="Vector" d="M27.1417 4.16675C29.4855 4.173 30.6751 4.1855 31.7021 4.21466L32.1063 4.22925C32.573 4.24591 33.0334 4.26675 33.5896 4.29175C35.8063 4.39591 37.3188 4.74591 38.6459 5.2605C40.0209 5.78966 41.1792 6.50633 42.3376 7.66258C43.3969 8.70403 44.2166 9.96381 44.7396 11.3542C45.2542 12.6813 45.6042 14.1938 45.7084 16.4126C45.7334 16.9667 45.7542 17.4272 45.7709 17.8959L45.7834 18.3001C45.8146 19.3251 45.8271 20.5147 45.8313 22.8584L45.8334 24.4126V27.1417C45.8385 28.6613 45.8225 30.1809 45.7855 31.7001L45.773 32.1042C45.7563 32.573 45.7355 33.0334 45.7105 33.5876C45.6063 35.8063 45.2521 37.3167 44.7396 38.6459C44.2181 40.0371 43.3982 41.2972 42.3376 42.3376C41.2958 43.3966 40.0361 44.2162 38.6459 44.7397C37.3188 45.2542 35.8063 45.6042 33.5896 45.7084C33.0953 45.7317 32.6009 45.7525 32.1063 45.7709L31.7021 45.7834C30.6751 45.8126 29.4855 45.8272 27.1417 45.8313L25.5876 45.8334H22.8605C21.3402 45.8387 19.8199 45.8227 18.3001 45.7855L17.8959 45.773C17.4013 45.7543 16.9069 45.7327 16.4126 45.7084C14.1959 45.6042 12.6834 45.2542 11.3542 44.7397C9.96396 44.2175 8.70468 43.3977 7.66465 42.3376C6.60432 41.2965 5.78386 40.0367 5.26048 38.6459C4.7459 37.3188 4.3959 35.8063 4.29173 33.5876C4.26852 33.0932 4.24768 32.5988 4.22923 32.1042L4.21881 31.7001C4.18042 30.1809 4.16306 28.6614 4.16673 27.1417V22.8584C4.16091 21.3388 4.17619 19.8192 4.21256 18.3001L4.22715 17.8959C4.24381 17.4272 4.26465 16.9667 4.28965 16.4126C4.39381 14.1938 4.74381 12.6834 5.2584 11.3542C5.78155 9.96238 6.60365 8.70221 7.66673 7.66258C8.7065 6.60315 9.96495 5.78339 11.3542 5.2605C12.6834 4.74591 14.1938 4.39591 16.4126 4.29175C16.9667 4.26675 17.4292 4.24591 17.8959 4.22925L18.3001 4.21675C19.8192 4.17973 21.3388 4.16376 22.8584 4.16883L27.1417 4.16675ZM25.0001 14.5834C22.2374 14.5834 19.5879 15.6809 17.6344 17.6344C15.6809 19.5879 14.5834 22.2374 14.5834 25.0001C14.5834 27.7628 15.6809 30.4123 17.6344 32.3658C19.5879 34.3193 22.2374 35.4167 25.0001 35.4167C27.7627 35.4167 30.4123 34.3193 32.3658 32.3658C34.3193 30.4123 35.4167 27.7628 35.4167 25.0001C35.4167 22.2374 34.3193 19.5879 32.3658 17.6344C30.4123 15.6809 27.7627 14.5834 25.0001 14.5834ZM25.0001 18.7501C25.8208 18.7499 26.6336 18.9115 27.3919 19.2254C28.1502 19.5394 28.8393 19.9997 29.4198 20.5799C30.0002 21.1602 30.4607 21.8491 30.775 22.6073C31.0892 23.3656 31.251 24.1783 31.2511 24.999C31.2512 25.8198 31.0897 26.6326 30.7757 27.3909C30.4618 28.1492 30.0015 28.8383 29.4213 29.4188C28.841 29.9992 28.1521 30.4597 27.3938 30.7739C26.6356 31.0881 25.8229 31.2499 25.0021 31.2501C23.3445 31.2501 21.7548 30.5916 20.5827 29.4195C19.4106 28.2474 18.7521 26.6577 18.7521 25.0001C18.7521 23.3425 19.4106 21.7528 20.5827 20.5807C21.7548 19.4086 23.3445 18.7501 25.0021 18.7501M35.9396 11.4584C35.249 11.4584 34.5866 11.7328 34.0982 12.2212C33.6098 12.7095 33.3355 13.3719 33.3355 14.0626C33.3355 14.7532 33.6098 15.4156 34.0982 15.904C34.5866 16.3924 35.249 16.6667 35.9396 16.6667C36.6303 16.6667 37.2927 16.3924 37.7811 15.904C38.2694 15.4156 38.5438 14.7532 38.5438 14.0626C38.5438 13.3719 38.2694 12.7095 37.7811 12.2212C37.2927 11.7328 36.6303 11.4584 35.9396 11.4584Z" fill="#111111"/>
</g>
</svg>
